<svg width="200" height="200" viewBox="0 0 200 200" fill="none" xmlns="http://www.w3.org/2000/svg">
<rect width="200" height="200" fill="#D9D9D9"/>
<path d="M63.4304 92.4545V107H60.7741L54.446 97.8452H54.3395V107H51.2642V92.4545H53.9631L60.2415 101.602H60.3693V92.4545H63.4304ZM70.8434 107.213C69.7402 107.213 68.7861 106.979 67.9812 106.51C67.181 106.036 66.5631 105.378 66.1275 104.536C65.6919 103.688 65.4741 102.705 65.4741 101.588C65.4741 100.461 65.6919 99.4763 66.1275 98.6335C66.5631 97.786 67.181 97.1278 67.9812 96.6591C68.7861 96.1856 69.7402 95.9489 70.8434 95.9489C71.9466 95.9489 72.8983 96.1856 73.6985 96.6591C74.5034 97.1278 75.1237 97.786 75.5593 98.6335C75.9949 99.4763 76.2127 100.461 76.2127 101.588C76.2127 102.705 75.9949 103.688 75.5593 104.536C75.1237 105.378 74.5034 106.036 73.6985 106.51C72.8983 106.979 71.9466 107.213 70.8434 107.213ZM70.8576 104.869C71.3595 104.869 71.7785 104.727 72.1147 104.443C72.4509 104.154 72.7042 103.761 72.8746 103.264C73.0498 102.767 73.1374 102.201 73.1374 101.567C73.1374 100.932 73.0498 100.366 72.8746 99.8693C72.7042 99.3722 72.4509 98.9792 72.1147 98.6903C71.7785 98.4015 71.3595 98.2571 70.8576 98.2571C70.351 98.2571 69.9248 98.4015 69.5792 98.6903C69.2383 98.9792 68.9802 99.3722 68.805 99.8693C68.6346 100.366 68.5494 100.932 68.5494 101.567C68.5494 102.201 68.6346 102.767 68.805 103.264C68.9802 103.761 69.2383 104.154 69.5792 104.443C69.9248 104.727 70.351 104.869 70.8576 104.869ZM83.9826 96.0909V98.3636H77.413V96.0909H83.9826ZM78.9045 93.4773H81.93V103.648C81.93 103.927 81.9727 104.145 82.0579 104.301C82.1431 104.453 82.2615 104.559 82.413 104.621C82.5692 104.682 82.7492 104.713 82.9528 104.713C83.0948 104.713 83.2369 104.701 83.3789 104.678C83.521 104.649 83.6299 104.628 83.7056 104.614L84.1815 106.865C84.0299 106.912 83.8169 106.967 83.5423 107.028C83.2676 107.095 82.9338 107.135 82.5408 107.149C81.8117 107.178 81.1725 107.08 80.6232 106.858C80.0787 106.635 79.6549 106.29 79.3519 105.821C79.0489 105.352 78.8997 104.76 78.9045 104.045V93.4773ZM90.6392 107V92.4545H100.27V94.9901H93.7145V98.456H99.6307V100.991H93.7145V107H90.6392ZM106.41 107.213C105.307 107.213 104.353 106.979 103.548 106.51C102.747 106.036 102.129 105.378 101.694 104.536C101.258 103.688 101.04 102.705 101.04 101.588C101.04 100.461 101.258 99.4763 101.694 98.6335C102.129 97.786 102.747 97.1278 103.548 96.6591C104.353 96.1856 105.307 95.9489 106.41 95.9489C107.513 95.9489 108.465 96.1856 109.265 96.6591C110.07 97.1278 110.69 97.786 111.126 98.6335C111.561 99.4763 111.779 100.461 111.779 101.588C111.779 102.705 111.561 103.688 111.126 104.536C110.69 105.378 110.07 106.036 109.265 106.51C108.465 106.979 107.513 107.213 106.41 107.213ZM106.424 104.869C106.926 104.869 107.345 104.727 107.681 104.443C108.017 104.154 108.271 103.761 108.441 103.264C108.616 102.767 108.704 102.201 108.704 101.567C108.704 100.932 108.616 100.366 108.441 99.8693C108.271 99.3722 108.017 98.9792 107.681 98.6903C107.345 98.4015 106.926 98.2571 106.424 98.2571C105.917 98.2571 105.491 98.4015 105.146 98.6903C104.805 98.9792 104.547 99.3722 104.371 99.8693C104.201 100.366 104.116 100.932 104.116 101.567C104.116 102.201 104.201 102.767 104.371 103.264C104.547 103.761 104.805 104.154 105.146 104.443C105.491 104.727 105.917 104.869 106.424 104.869ZM120.742 102.355V96.0909H123.768V107H120.863V105.018H120.749C120.503 105.658 120.094 106.171 119.521 106.56C118.952 106.948 118.259 107.142 117.44 107.142C116.71 107.142 116.069 106.976 115.515 106.645C114.961 106.313 114.528 105.842 114.215 105.232C113.907 104.621 113.751 103.889 113.746 103.037V96.0909H116.772V102.497C116.777 103.141 116.95 103.65 117.29 104.024C117.631 104.398 118.088 104.585 118.661 104.585C119.026 104.585 119.367 104.502 119.684 104.337C120.001 104.166 120.257 103.915 120.451 103.584C120.65 103.252 120.747 102.843 120.742 102.355ZM129.213 100.693V107H126.188V96.0909H129.071V98.0156H129.199C129.441 97.3812 129.846 96.8793 130.414 96.5099C130.982 96.1359 131.671 95.9489 132.48 95.9489C133.238 95.9489 133.899 96.1146 134.462 96.446C135.025 96.7775 135.463 97.2509 135.776 97.8665C136.088 98.4773 136.245 99.2064 136.245 100.054V107H133.219V100.594C133.224 99.9261 133.053 99.4053 132.708 99.0312C132.362 98.6525 131.886 98.4631 131.28 98.4631C130.873 98.4631 130.513 98.5507 130.201 98.7259C129.893 98.901 129.651 99.1567 129.476 99.4929C129.306 99.8243 129.218 100.224 129.213 100.693ZM142.649 107.178C141.821 107.178 141.07 106.964 140.398 106.538C139.73 106.107 139.2 105.475 138.807 104.642C138.419 103.804 138.224 102.777 138.224 101.56C138.224 100.31 138.426 99.2704 138.828 98.4418C139.231 97.6084 139.766 96.9858 140.433 96.5739C141.106 96.1572 141.842 95.9489 142.642 95.9489C143.253 95.9489 143.762 96.053 144.169 96.2614C144.581 96.465 144.912 96.7206 145.163 97.0284C145.419 97.3314 145.613 97.6297 145.746 97.9233H145.838V92.4545H148.857V107H145.874V105.253H145.746C145.604 105.556 145.402 105.857 145.142 106.155C144.886 106.448 144.553 106.692 144.141 106.886C143.733 107.08 143.236 107.178 142.649 107.178ZM143.608 104.77C144.096 104.77 144.508 104.637 144.844 104.372C145.185 104.102 145.445 103.726 145.625 103.243C145.81 102.76 145.902 102.194 145.902 101.545C145.902 100.897 145.812 100.333 145.632 99.8551C145.452 99.3769 145.192 99.0076 144.851 98.7472C144.51 98.4867 144.096 98.3565 143.608 98.3565C143.111 98.3565 142.692 98.4915 142.351 98.7614C142.01 99.0312 141.752 99.4053 141.577 99.8835C141.402 100.362 141.314 100.916 141.314 101.545C141.314 102.18 141.402 102.741 141.577 103.229C141.757 103.712 142.015 104.09 142.351 104.365C142.692 104.635 143.111 104.77 143.608 104.77Z" fill="black"/>
</svg>
